<svg width="276" height="78" viewBox="0 0 276 78" fill="none" xmlns="http://www.w3.org/2000/svg">
<g clip-path="url(#clip0)">
<path d="M91.2353 63.2454V57.8324L96.0308 56.9043V24.5813L91.2353 23.6532V18.2091H96.0308H112.674C116.117 18.2091 119.087 18.8129 121.581 20.0169C124.076 21.2244 125.994 22.9046 127.336 25.0574C128.675 27.2136 129.347 29.7218 129.347 32.5887C129.347 35.4557 128.678 37.9673 127.336 40.1201C125.994 42.2763 124.079 43.9461 121.581 45.1295C119.087 46.3163 116.117 46.9097 112.674 46.9097H105.063V56.9009L109.889 57.8289V63.242H91.2353V63.2454ZM105.063 39.9545H112.674C115.189 39.9545 117.093 39.2679 118.38 37.8983C119.667 36.5286 120.312 34.7795 120.312 32.6543C120.312 30.4877 119.667 28.7006 118.38 27.2861C117.09 25.875 115.189 25.1678 112.674 25.1678H105.063V39.9545Z" fill="white"/>
<path d="M133.115 63.2454V57.8323L137.445 56.9043V36.1491L132.649 35.221V29.7804H145.856L146.197 33.9238L146.259 34.6656C147.084 32.8509 148.105 31.4812 149.323 30.5532C150.541 29.6251 151.993 29.1628 153.684 29.1628C154.218 29.1628 154.808 29.2077 155.447 29.3008C156.085 29.394 156.654 29.5113 157.148 29.6562L156.188 37.9776L151.703 37.7292C150.423 37.6671 149.388 37.8844 148.595 38.3778C147.801 38.8711 147.094 39.5853 146.477 40.5133V56.9077L150.806 57.8358V63.2488H133.115V63.2454Z" fill="white"/>
<path d="M172.648 63.8975C169.35 63.8975 166.514 63.1764 164.141 61.7309C161.771 60.2888 159.956 58.2809 158.697 55.7141C157.437 53.1473 156.809 50.1941 156.809 46.851V46.2024C156.809 42.8835 157.437 39.9372 158.697 37.3704C159.956 34.8036 161.764 32.7923 164.123 31.3398C166.483 29.8874 169.305 29.1594 172.583 29.1594C175.902 29.1594 178.738 29.8874 181.091 31.3398C183.443 32.7923 185.244 34.8002 186.504 37.3566C187.763 39.9131 188.391 42.8628 188.391 46.2024V46.851C188.391 50.1906 187.763 53.1473 186.504 55.7141C185.244 58.2809 183.44 60.2853 181.091 61.7309C178.745 63.1764 175.929 63.8975 172.648 63.8975ZM172.648 56.9664C174.215 56.9664 175.495 56.5455 176.485 55.6968C177.475 54.8516 178.206 53.6717 178.682 52.1537C179.155 50.6391 179.393 48.8693 179.393 46.8476V46.199C179.393 44.2187 179.155 42.473 178.682 40.955C178.206 39.4404 177.472 38.2536 176.471 37.398C175.471 36.5424 174.177 36.1146 172.59 36.1146C171.044 36.1146 169.764 36.5424 168.753 37.398C167.743 38.2536 167.004 39.4404 166.542 40.955C166.08 42.4695 165.845 44.2187 165.845 46.199V46.8476C165.845 48.8693 166.076 50.6426 166.542 52.1675C167.004 53.6924 167.743 54.8723 168.753 55.7106C169.761 56.549 171.061 56.9664 172.648 56.9664Z" fill="white"/>
<path d="M208.873 63.8975C206.81 63.8975 205.047 63.4904 203.585 62.6762C202.122 61.862 200.894 60.6821 199.903 59.133L199.255 63.2454H191.461V21.3659L186.666 20.4378V14.9937H200.462V33.3374C201.432 31.9988 202.622 30.9672 204.037 30.2427C205.448 29.5217 207.093 29.1594 208.97 29.1594C211.671 29.1594 213.966 29.8874 215.853 31.3398C217.74 32.7923 219.179 34.8416 220.169 37.4808C221.159 40.1201 221.652 43.2251 221.652 46.7924V47.441C221.652 50.7599 221.159 53.6544 220.169 56.1177C219.179 58.581 217.736 60.4958 215.839 61.8551C213.935 63.2178 211.616 63.8975 208.873 63.8975ZM206.151 56.8767C208.459 56.8767 210.122 56.0556 211.13 54.4169C212.141 52.7781 212.644 50.4528 212.644 47.441V46.7924C212.644 44.6085 212.423 42.7248 211.978 41.1482C211.533 39.5715 210.843 38.3502 209.905 37.4843C208.967 36.6183 207.745 36.1836 206.241 36.1836C204.882 36.1836 203.716 36.5045 202.746 37.1427C201.777 37.781 201.014 38.6469 200.459 39.7406V53.72C201.076 54.7515 201.866 55.5347 202.826 56.0694C203.785 56.6076 204.892 56.8767 206.151 56.8767Z" fill="#2EFFDC"/>
<path d="M239.654 63.8975C236.356 63.8975 233.52 63.1764 231.147 61.7309C228.776 60.2888 226.962 58.2809 225.702 55.7141C224.443 53.1473 223.815 50.1941 223.815 46.851V46.2024C223.815 42.8835 224.443 39.9372 225.702 37.3704C226.962 34.8036 228.77 32.7923 231.129 31.3398C233.489 29.8874 236.311 29.1594 239.589 29.1594C242.908 29.1594 245.743 29.8874 248.096 31.3398C250.449 32.7923 252.25 34.8002 253.509 37.3566C254.769 39.9131 255.397 42.8628 255.397 46.2024V46.851C255.397 50.1906 254.769 53.1473 253.509 55.7141C252.25 58.2809 250.446 60.2853 248.096 61.7309C245.747 63.1764 242.932 63.8975 239.654 63.8975ZM239.654 56.9664C241.221 56.9664 242.501 56.5455 243.491 55.6968C244.481 54.8516 245.212 53.6717 245.688 52.1537C246.161 50.6391 246.399 48.8693 246.399 46.8476V46.199C246.399 44.2187 246.161 42.473 245.688 40.955C245.212 39.4404 244.477 38.2536 243.477 37.398C242.476 36.5424 241.183 36.1146 239.596 36.1146C238.05 36.1146 236.77 36.5424 235.759 37.398C234.748 38.2536 234.01 39.4404 233.548 40.955C233.085 42.4695 232.851 44.2187 232.851 46.199V46.8476C232.851 48.8693 233.082 50.6426 233.548 52.1675C234.01 53.6924 234.748 54.8723 235.759 55.7106C236.767 56.549 238.064 56.9664 239.654 56.9664Z" fill="#2EFFDC"/>
<path d="M269.783 63.8975C266.668 63.8975 264.273 63.0419 262.59 61.3307C260.91 59.6195 260.068 56.9078 260.068 53.1956V36.1216H255.459V29.7805H260.068V21.5833H269.069V29.7805H275.224V36.1216H269.069V53.1646C269.069 54.4652 269.342 55.3933 269.89 55.9487C270.435 56.5042 271.184 56.7836 272.133 56.7836C272.626 56.7836 273.164 56.7491 273.74 56.6767C274.316 56.6042 274.813 56.5283 275.224 56.4455L275.997 62.9729C275.069 63.242 274.065 63.4628 272.981 63.6388C271.901 63.8078 270.835 63.8975 269.783 63.8975Z" fill="#2EFFDC"/>
<path d="M38.7055 77.4111C60.082 77.4111 77.4111 60.082 77.4111 38.7056C77.4111 17.3291 60.082 0 38.7055 0C17.3291 0 0 17.3291 0 38.7056C0 60.082 17.3291 77.4111 38.7055 77.4111Z" fill="#2EFFDC"/>
<path d="M38.7055 72.8088C57.5403 72.8088 72.8088 57.5403 72.8088 38.7055C72.8088 19.8708 57.5403 4.60229 38.7055 4.60229C19.8708 4.60229 4.60229 19.8708 4.60229 38.7055C4.60229 57.5403 19.8708 72.8088 38.7055 72.8088Z" fill="#114EF6"/>
<path d="M55.1931 54.7895C44.3187 57.0423 33.0924 57.0423 22.2181 54.7895C18.7818 54.0857 15.7389 51.6155 13.5378 48.6623C11.3402 45.678 9.99125 42.2177 9.9878 38.8194C9.98435 35.4108 11.3609 32.4887 13.6103 30.222C15.8562 27.9864 18.975 26.4063 22.4044 26.4063C33.2719 26.4063 44.1428 26.4063 55.0103 26.4063C58.4361 26.4063 61.555 27.9864 63.8044 30.222C66.0537 32.4887 67.4303 35.4108 67.4268 38.8194C67.4199 42.2177 66.071 45.678 63.8768 48.6623C61.6722 51.6155 58.6293 54.0857 55.1931 54.7895Z" fill="#080056"/>
<path d="M46.7026 32.7957C46.2783 32.4059 45.8022 32.3955 45.2847 32.6025C44.0496 33.0924 42.811 33.5582 41.5725 34.0377C36.6424 35.9387 31.7124 37.8431 26.7823 39.7475C26.2786 39.9407 26.0406 40.2512 26.044 40.6721C26.0509 41.0895 26.2993 41.3828 26.8134 41.5656C27.9691 41.9762 29.1318 42.3695 30.2841 42.7938C31.0396 43.0698 31.7227 42.9801 32.3955 42.542C34.8415 40.9481 37.8327 39.368 40.2856 37.781C40.7997 37.4498 41.3103 37.1151 41.8243 36.7874C41.9968 36.677 42.1935 36.6701 42.2832 36.8598C42.3384 36.9771 42.297 37.1738 42.2349 37.3083C42.1797 37.4325 42.0417 37.5188 41.9382 37.6188C39.8716 39.6474 37.26 41.676 35.1969 43.7081C34.6518 44.2463 34.6828 44.819 35.2866 45.2675C37.3773 46.8131 39.468 48.3621 41.5656 49.8939C41.814 50.0768 42.1314 50.163 42.4177 50.2941C43.1836 50.2217 43.6942 49.7525 43.8736 48.9279C44.9328 44.0048 45.9919 39.0816 47.0545 34.1585C47.1649 33.6341 47.1028 33.1683 46.7026 32.7957Z" fill="#2EFFDC"/>
</g>
<defs>
<clipPath id="clip0">
<rect width="276" height="77.4111" fill="white"/>
</clipPath>
</defs>
</svg>
