<svg width="276" height="80" viewBox="0 0 276 80" fill="none" xmlns="http://www.w3.org/2000/svg">
<g clip-path="url(#clip0)">
<path d="M90.9109 65.3608V59.7668L95.7064 58.8077V25.4036L90.9109 24.4445V18.8184H95.7064H112.349C115.792 18.8184 118.763 19.4423 121.257 20.6866C123.751 21.9345 125.67 23.6708 127.012 25.8956C128.35 28.124 129.023 30.716 129.023 33.6789C129.023 36.6417 128.354 39.2373 127.012 41.4621C125.67 43.6905 123.755 45.4161 121.257 46.639C118.763 47.8655 115.792 48.4788 112.349 48.4788H104.738V58.8041L109.565 59.7632V65.3573H90.9109V65.3608ZM104.738 41.2909H112.349C114.864 41.2909 116.769 40.5814 118.055 39.166C119.342 37.7505 119.987 35.9429 119.987 33.7466C119.987 31.5075 119.342 29.6607 118.055 28.1989C116.765 26.7406 114.864 26.0097 112.349 26.0097H104.738V41.2909Z" fill="#080056"/>
<path d="M132.79 65.3608V59.7667L137.12 58.8077V37.3583L132.325 36.3992V30.7766H145.531L145.873 35.0587L145.935 35.8252C146.759 33.9498 147.781 32.5344 148.999 31.5753C150.216 30.6162 151.669 30.1384 153.359 30.1384C153.894 30.1384 154.484 30.1848 155.122 30.281C155.761 30.3773 156.33 30.4985 156.823 30.6483L155.864 39.248L151.379 38.9913C150.099 38.9271 149.064 39.1517 148.271 39.6616C147.477 40.1714 146.77 40.9094 146.152 41.8685V58.8112L150.482 59.7703V65.3644H132.79V65.3608Z" fill="#080056"/>
<path d="M172.324 66.0346C169.026 66.0346 166.19 65.2894 163.816 63.7955C161.446 62.3052 159.631 60.2301 158.372 57.5775C157.113 54.9249 156.485 51.8729 156.485 48.418V47.7477C156.485 44.3178 157.113 41.273 158.372 38.6204C159.631 35.9677 161.439 33.8891 163.799 32.3881C166.159 30.8871 168.981 30.1348 172.258 30.1348C175.577 30.1348 178.413 30.8871 180.766 32.3881C183.119 33.8891 184.92 35.9642 186.179 38.6061C187.438 41.2481 188.066 44.2965 188.066 47.7477V48.418C188.066 51.8693 187.438 54.9249 186.179 57.5775C184.92 60.2301 183.115 62.3016 180.766 63.7955C178.42 65.2894 175.605 66.0346 172.324 66.0346ZM172.324 58.8717C173.89 58.8717 175.17 58.4368 176.16 57.5597C177.15 56.6861 177.882 55.4668 178.358 53.898C178.83 52.3328 179.068 50.5038 179.068 48.4145V47.7442C179.068 45.6977 178.83 43.8936 178.358 42.3248C177.882 40.7596 177.147 39.5331 176.146 38.6489C175.146 37.7647 173.852 37.3226 172.265 37.3226C170.719 37.3226 169.44 37.7647 168.429 38.6489C167.418 39.5331 166.68 40.7596 166.217 42.3248C165.755 43.89 165.52 45.6977 165.52 47.7442V48.4145C165.52 50.5038 165.751 52.3364 166.217 53.9123C166.68 55.4882 167.418 56.7075 168.429 57.5739C169.436 58.4403 170.737 58.8717 172.324 58.8717Z" fill="#080056"/>
<path d="M208.549 66.0346C206.486 66.0346 204.723 65.6139 203.26 64.7725C201.797 63.931 200.569 62.7117 199.579 61.1108L198.93 65.3608H191.137V22.0806L186.341 21.1215V15.4954H200.138V34.4525C201.107 33.0691 202.297 32.0031 203.712 31.2543C205.123 30.5092 206.769 30.1348 208.646 30.1348C211.347 30.1348 213.641 30.8871 215.528 32.3881C217.415 33.8892 218.854 36.007 219.844 38.7345C220.834 41.462 221.328 44.6709 221.328 48.3575V49.0278C221.328 52.4576 220.834 55.449 219.844 57.9947C218.854 60.5404 217.412 62.5191 215.514 63.9239C213.61 65.3322 211.292 66.0346 208.549 66.0346ZM205.827 58.7791C208.135 58.7791 209.798 57.9305 210.805 56.2369C211.816 54.5434 212.32 52.1403 212.32 49.0278V48.3575C212.32 46.1006 212.099 44.1539 211.654 42.5245C211.209 40.8951 210.519 39.633 209.58 38.7381C208.642 37.8432 207.421 37.3939 205.917 37.3939C204.557 37.3939 203.391 37.7255 202.422 38.3851C201.452 39.0447 200.69 39.9396 200.134 41.0698V55.5167C200.752 56.5828 201.542 57.3921 202.501 57.9448C203.46 58.501 204.568 58.7791 205.827 58.7791Z" fill="#114EF6"/>
<path d="M239.33 66.0346C236.032 66.0346 233.196 65.2894 230.822 63.7955C228.452 62.3052 226.637 60.2301 225.378 57.5775C224.119 54.9249 223.491 51.8729 223.491 48.418V47.7477C223.491 44.3178 224.119 41.273 225.378 38.6204C226.637 35.9677 228.445 33.8891 230.805 32.3881C233.165 30.8871 235.987 30.1348 239.264 30.1348C242.583 30.1348 245.419 30.8871 247.772 32.3881C250.125 33.8891 251.926 35.9642 253.185 38.6061C254.444 41.2481 255.072 44.2965 255.072 47.7477V48.418C255.072 51.8693 254.444 54.9249 253.185 57.5775C251.926 60.2301 250.121 62.3016 247.772 63.7955C245.423 65.2894 242.607 66.0346 239.33 66.0346ZM239.33 58.8717C240.896 58.8717 242.176 58.4368 243.166 57.5597C244.156 56.6861 244.888 55.4668 245.364 53.898C245.837 52.3328 246.075 50.5038 246.075 48.4145V47.7442C246.075 45.6977 245.837 43.8936 245.364 42.3248C244.888 40.7596 244.153 39.5331 243.152 38.6489C242.152 37.7647 240.858 37.3226 239.271 37.3226C237.726 37.3226 236.446 37.7647 235.435 38.6489C234.424 39.5331 233.686 40.7596 233.223 42.3248C232.761 43.89 232.526 45.6977 232.526 47.7442V48.4145C232.526 50.5038 232.758 52.3364 233.223 53.9123C233.686 55.4882 234.424 56.7075 235.435 57.5739C236.442 58.4403 237.739 58.8717 239.33 58.8717Z" fill="#114EF6"/>
<path d="M269.459 66.0347C266.343 66.0347 263.949 65.1505 262.265 63.382C260.585 61.6136 259.743 58.8112 259.743 54.9749V37.3298H255.134V30.7766H259.743V22.3053H268.745V30.7766H274.899V37.3298H268.745V54.9428C268.745 56.2869 269.017 57.246 269.566 57.82C270.111 58.3941 270.859 58.6829 271.808 58.6829C272.301 58.6829 272.84 58.6472 273.416 58.5723C273.992 58.4975 274.489 58.419 274.899 58.3335L275.672 65.0792C274.744 65.3573 273.74 65.5854 272.657 65.7673C271.577 65.942 270.511 66.0347 269.459 66.0347Z" fill="#114EF6"/>
<path d="M38.7055 80.0001C60.082 80.0001 77.4111 62.0914 77.4111 40.0001C77.4111 17.9087 60.082 6.10352e-05 38.7055 6.10352e-05C17.3291 6.10352e-05 0 17.9087 0 40.0001C0 62.0914 17.3291 80.0001 38.7055 80.0001Z" fill="#080056"/>
<path d="M38.7054 75.244C57.5401 75.244 72.8087 59.4648 72.8087 40.0002C72.8087 20.5356 57.5401 4.75641 38.7054 4.75641C19.8707 4.75641 4.60217 20.5356 4.60217 40.0002C4.60217 59.4648 19.8707 75.244 38.7054 75.244Z" fill="#2EFFDC"/>
<path d="M55.1931 56.6219C44.3187 58.9501 33.0924 58.9501 22.218 56.6219C18.7818 55.8946 15.7389 53.3418 13.5378 50.2898C11.3402 47.2058 9.99125 43.6297 9.9878 40.1178C9.98435 36.5952 11.3609 33.5753 13.6103 31.2329C15.8562 28.9225 18.975 27.2896 22.4043 27.2896C33.2718 27.2896 44.1428 27.2896 55.0103 27.2896C58.4361 27.2896 61.5549 28.9225 63.8043 31.2329C66.0537 33.5753 67.4303 36.5952 67.4268 40.1178C67.4199 43.6297 66.071 47.2058 63.8768 50.2898C61.6722 53.3418 58.6293 55.8946 55.1931 56.6219Z" fill="#080056"/>
<path d="M46.7026 33.8927C46.2782 33.4898 45.8021 33.4791 45.2846 33.693C44.0495 34.1993 42.811 34.6806 41.5724 35.1762C36.6424 37.1407 31.7123 39.1088 26.7823 41.0769C26.2786 41.2766 26.0405 41.5974 26.044 42.0324C26.0509 42.4638 26.2993 42.7669 26.8133 42.9558C27.9691 43.3801 29.1317 43.7866 30.284 44.2251C31.0396 44.5103 31.7227 44.4176 32.3954 43.9648C34.8415 42.3176 37.8326 40.6847 40.2856 39.0446C40.7996 38.7023 41.3102 38.3565 41.8243 38.0178C41.9968 37.9037 42.1934 37.8966 42.2831 38.0927C42.3383 38.2139 42.2969 38.4171 42.2348 38.5562C42.1796 38.6845 42.0416 38.7737 41.9381 38.8771C39.8716 40.9735 37.2599 43.0699 35.1968 45.1699C34.6517 45.7261 34.6828 46.318 35.2865 46.7815C37.3772 48.3788 39.4679 49.9796 41.5655 51.5627C41.8139 51.7516 42.1313 51.8408 42.4177 51.9762C43.1836 51.9014 43.6942 51.4165 43.8736 50.5644C44.9327 45.4766 45.9919 40.3888 47.0545 35.301C47.1649 34.759 47.1028 34.2777 46.7026 33.8927Z" fill="#2EFFDC"/>
</g>
<defs>
<clipPath id="clip0">
<rect width="276" height="80" fill="white"/>
</clipPath>
</defs>
</svg>
