<svg width="88" height="29" viewBox="0 0 88 29" fill="none" xmlns="http://www.w3.org/2000/svg">
<path d="M24.0749 24.0762C18.5688 29.5841 9.63797 29.583 4.13172 24.0762C-1.37724 18.568 -1.37724 9.63816 4.13172 4.13026C9.63935 -1.37688 18.5692 -1.37688 24.0743 4.13103C29.583 9.6379 29.583 18.5679 24.0748 24.0759" fill="white"/>
<path d="M21.953 3.63105C19.7643 1.9892 17.0483 1.01669 14.1037 1.01669C6.87592 1.01669 1.01709 6.87663 1.01709 14.1045C1.01709 17.0131 1.96701 19.6994 3.57195 21.8722C12.3726 19.3099 19.3228 12.4055 21.9528 3.63072" fill="#EB1933"/>
<path d="M25.0825 6.98657C25.3462 7.84306 25.4926 8.75061 25.4926 9.69221C25.4926 12.7306 23.996 15.4034 21.7266 17.077C17.7739 19.9869 12.0154 19.9908 4.06421 22.4963C6.46449 25.3648 10.0701 27.191 14.1033 27.191C21.3317 27.191 27.1927 21.3317 27.1927 14.1044C27.1927 11.4804 26.4152 9.03769 25.0825 6.98729L25.0825 6.98657Z" fill="#2151A1"/>
<path d="M86.6813 4.93234C85.9568 4.93234 85.3627 5.52591 85.3627 6.25044C85.3627 6.97497 85.9568 7.56697 86.6813 7.56697C87.4095 7.56697 87.9999 6.97494 87.9999 6.25044C87.9999 5.52591 87.4096 4.93234 86.6813 4.93234ZM78.8646 8.2518C76.5451 8.2518 74.7994 9.73983 74.7994 11.7106C74.7994 13.2728 76.085 14.3824 78.4157 14.8399L79.8739 15.1193C80.8327 15.2961 81.3714 15.8044 81.3522 16.5153C81.3349 17.2096 80.4817 17.9316 79.0833 17.9316C77.9421 17.9316 76.9328 17.4826 76.0914 16.7186L76.0801 16.7032C76.0201 16.6506 75.9478 16.5858 75.8507 16.5858C75.7883 16.5858 75.7161 16.6166 75.6401 16.6765C75.5517 16.7482 74.5773 17.5187 74.4722 17.6269C74.4264 17.6788 74.4013 17.7313 74.4081 17.7888C74.4106 17.8803 74.4662 17.9625 74.5206 18.0126C75.7823 19.1667 77.1602 19.8268 78.9506 19.8268H79.0049C82.0897 19.8058 83.4702 18.1183 83.4702 16.4554C83.4702 14.1563 81.2978 13.5282 80.6382 13.3897C80.4249 13.3452 80.2011 13.3038 79.9767 13.2593C79.4395 13.1554 78.8819 13.0478 78.3714 12.9069C78.0171 12.8117 76.858 12.4253 76.858 11.5581C76.858 10.6048 77.9169 10.0918 78.9121 10.0918C79.7473 10.0918 80.4428 10.2309 81.3348 10.9276C81.4016 10.9826 81.4993 11.0457 81.6167 11.0457C81.7107 11.0457 81.7973 11.0165 81.8833 10.9491C82.1324 10.7674 82.5788 10.3859 82.8792 10.0898C82.9534 10.0156 82.9811 9.94037 82.9786 9.85629C82.9712 9.73142 82.8791 9.62752 82.8285 9.58796C81.6347 8.64337 80.4912 8.25806 78.8782 8.2519L78.8646 8.2518ZM41.3437 8.25206C38.7201 8.25206 36.503 9.98193 35.8244 12.5523C35.7063 12.9887 35.5906 14.1026 35.5906 15.211V23.3582C35.5906 23.5059 35.7112 23.6291 35.8559 23.6291H37.3111C37.4595 23.6291 37.5802 23.5059 37.5802 23.3582L37.5777 18.2229L37.6525 18.2995C38.364 18.9882 39.6813 19.7592 41.2577 19.8333C41.3486 19.8377 41.4464 19.8395 41.5361 19.8395C43.0376 19.8395 44.4334 19.2615 45.4683 18.2149C46.5174 17.151 47.0973 15.6906 47.0973 14.1038C47.0973 10.8212 44.5701 8.25206 41.3437 8.25206ZM54.3911 8.25206C54.1432 8.25206 53.8886 8.26712 53.6363 8.3005C50.4619 8.70852 48.3057 11.5866 48.728 14.8494C49.1075 17.8038 51.4845 19.8296 54.3788 19.8296C54.6217 19.8296 54.8766 19.8117 55.1325 19.7814C56.6767 19.5854 58.0285 18.9382 59.0455 17.6857C59.1024 17.6096 59.1302 17.5189 59.119 17.4361C59.1092 17.3656 59.0684 17.2986 58.9912 17.2405C58.8211 17.12 58.2135 16.8251 57.884 16.6644C57.7838 16.6168 57.7078 16.5803 57.6621 16.558C57.5638 16.5049 57.4902 16.4834 57.4252 16.4834C57.3467 16.4834 57.2706 16.5241 57.1946 16.6144C56.5399 17.3754 55.7129 17.7759 54.8678 17.8853C54.7003 17.9057 54.5358 17.9169 54.3788 17.9169C52.837 17.9169 51.2793 16.8828 50.8305 15.4678L50.8192 15.4299L50.852 15.415C50.9305 15.3736 51.6539 15.0411 52.7222 15.0411C52.8551 15.0411 52.9892 15.0454 53.1197 15.0577C53.4275 15.0806 53.7365 15.1189 54.061 15.1597C54.6613 15.2407 55.2845 15.3212 56.0078 15.3212C56.4554 15.3212 56.8936 15.2927 57.3431 15.2284C59.1074 14.8872 59.8047 14.3915 59.8134 14.3878C60.0632 14.2271 60.0515 14.094 60.0379 13.8529L60.0366 13.8288C60.0273 13.7207 60.0081 13.5426 59.9859 13.3547C59.9401 13.006 59.864 12.6678 59.7613 12.3383C58.9732 9.85375 56.8651 8.25206 54.3911 8.25206ZM67.3741 8.25206C64.7492 8.25206 62.5324 9.98193 61.8542 12.5523C61.7405 12.9887 61.62 14.1026 61.62 15.211V23.3582C61.62 23.5059 61.7406 23.6291 61.8865 23.6291H63.3379C63.4875 23.6291 63.6093 23.5059 63.6093 23.3582L63.607 18.2229L63.6854 18.2995C64.3957 18.9882 65.713 19.7592 67.2875 19.8333C67.3778 19.8377 67.4718 19.8395 67.5664 19.8395C69.0692 19.8395 70.4651 19.2615 71.4963 18.2149C72.5478 17.151 73.1227 15.6906 73.1227 14.1038C73.1227 10.8212 70.598 8.25206 67.3741 8.25206ZM85.9482 8.63649C85.806 8.63649 85.6829 8.75458 85.6829 8.90047V19.2873C85.6829 19.4344 85.806 19.5551 85.9482 19.5551H87.4104C87.5593 19.5551 87.6797 19.4344 87.6797 19.2873V8.90047C87.6797 8.75458 87.5593 8.63649 87.4104 8.63649H85.9482ZM54.3899 10.1983C56.0195 10.1983 57.6015 11.4351 58.0738 13.0764L58.0856 13.1197L58.041 13.1297C57.7498 13.2231 57.3529 13.3035 56.8577 13.3678C56.6222 13.3963 56.3601 13.4129 56.0535 13.4129C55.5391 13.4129 54.9803 13.3708 54.4406 13.3294H54.4209C53.9214 13.2911 53.4454 13.2546 52.9928 13.2546C52.6677 13.2546 52.3708 13.2731 52.0846 13.3114C51.237 13.4153 50.5658 13.6823 50.5658 13.6823L50.5745 13.6131C50.7371 11.9112 52.1681 10.4591 53.901 10.2255C54.0598 10.2076 54.223 10.1983 54.3899 10.1983ZM41.3207 10.2234C43.388 10.2234 45.0095 11.9271 45.0095 14.1038C45.0095 16.2921 43.4721 17.9417 41.4297 17.9417C40.3973 17.9417 39.4446 17.5737 38.7478 16.903C38.0245 16.2137 37.6258 15.2406 37.6258 14.1686C37.6258 11.9945 39.2838 10.2234 41.3207 10.2234ZM67.3507 10.2234C69.4191 10.2234 71.0407 11.9271 71.0407 14.1038C71.0407 16.2921 69.5044 17.9417 67.462 17.9417C66.4296 17.9417 65.4757 17.5737 64.7766 16.903C64.0546 16.2137 63.6569 15.2406 63.6569 14.1686C63.6569 11.9945 65.3151 10.2234 67.3507 10.2234Z" fill="white"/>
</svg>
